<svg version="1.0" xmlns="http://www.w3.org/2000/svg" width="304" height="230">
  <g fill="#e4643b">
    <path d="m110.9 218.1-2.4-.15v-22.4l-3.6-.15-3.65-.15v-4.5l9.7-.15c5.7-.05 9.9.1 10.25.35.35.3.5 1.35.4 2.5l-.2 2.05H114v11.2c0 6.2-.15 11.3-.35 11.4-.25.1-1.45.1-2.75 0zM135.4 218.1l-2.4-.15V191l1.2-.3c.65-.15 1.85-.2 2.6-.1l1.45.15.15 13.45c.05 7.4-.05 13.6-.25 13.75-.25.15-1.45.25-2.75.15zM156.5 217.7c-3.05-1.3-4.9-3.55-5.55-6.65-.75-3.7-.35-13.25.7-15.65 1.2-2.85 4.25-4.5 8.6-4.75 3.1-.15 3.8-.05 6 1.2 2.7 1.55 4.15 3.55 4.35 6.15l.15 1.75h-2.6c-1.45 0-2.65-.15-2.65-.4.05-1.1-1.65-3.3-2.95-3.85-1.75-.7-3.25-.4-5 .95-1.15.9-1.25 1.25-1.35 7.05-.15 8.35.55 9.95 4.6 10 2.45 0 3.6-.75 4.1-2.75.4-1.45.55-1.5 3.15-1.5h2.7l-.15 1.5c-.3 2.85-1.8 4.9-4.6 6.35-3 1.6-6.65 1.85-9.5.6zM188.25 217.55c-2.35-1.1-4.45-3.2-5.2-5.2-.35-.85-.55-5.55-.55-11.35v-10l1.2-.3c.65-.15 1.85-.2 2.6-.1l1.45.15.25 10.1c.25 10.1.25 10.15 1.55 11.45 1.5 1.45 4.4 1.8 5.8.65 1.85-1.55 2.2-3.7 2.15-12.8-.05-4.95.1-8.95.4-9.25.25-.25 1.45-.4 2.65-.3l2.2.15.15 9.4c.15 10.25-.2 12.45-2.25 14.9-2.75 3.25-8.3 4.4-12.4 2.5zM254.6 218.1l-9.1-.1.1-13.65.15-13.6h18.5l.15 2.4.15 2.35H251v6.25h8.75v4.85l-4.25.1-4.25.05-.15 3.4-.15 3.35h13.55v2.2c0 1.25-.15 2.3-.35 2.4-.25.1-4.5.1-9.55 0zM7.35 217.65c-.45-.4-.4-25.4 0-26.5.3-.8 10.9-.9 13.85-.1 1.05.3 2.85 1.4 4 2.45 2 1.9 2.05 2 2.05 5.35 0 3.05-.2 3.7-1.4 5.3-2.2 2.85-3.25 3.25-9.2 3.3l-3.6.05-.15 5.15-.15 5.1-2.5.15c-1.4.1-2.7 0-2.9-.25zm13.6-15.95c1.3-1.65 1.35-3.25.1-4.75-.8-.95-1.5-1.2-4.5-1.35l-3.55-.2v7.6h3.45c3.15 0 3.55-.1 4.5-1.3zM35.4 217.75c-.25-.25.15-1.6 3.65-12.25 1-3.15 2.45-7.7 3.15-10.05.8-2.6 1.6-4.45 2.1-4.65.45-.15 1.9-.3 3.25-.3 3 0 3.25.35 5.4 7.25 3.15 10.15 5.7 18 6.1 18.8.55 1.2.1 1.45-2.8 1.45-2.55 0-2.6-.05-3.4-2l-.75-2H42l-.3 1.4c-.55 2.6-.6 2.6-3.35 2.6-1.5 0-2.8-.1-2.95-.25zm15.05-9.1c0-.5-.75-3.15-1.65-5.9-1.65-4.95-1.65-5-2.25-3.5-.35.85-.8 2.4-1.05 3.5-.2 1.1-.75 3.05-1.15 4.4l-.75 2.35h3.45c2.95 0 3.45-.1 3.4-.85zM70.5 204.55V191l1.3-.3c.7-.2 3.9-.25 7.2-.1 5.45.2 6.05.3 8 1.6 2.35 1.55 3.5 3.8 3.5 6.8 0 1.95-1.6 6-2.4 6-.2 0-.9.45-1.5.95l-1.2.9 2.55 4.95c1.4 2.75 2.55 5.25 2.55 5.6 0 .45-.8.6-2.8.5l-2.8-.15-2.3-5.35c-2.15-4.95-2.45-5.4-3.95-5.7-2.55-.5-2.75-.1-2.6 5.75l.15 5.3-2.85.15-2.85.15v-13.5zM84 201.5c1-1 1.3-3.25.6-4.3-.75-1.15-2.6-1.7-5.55-1.7H76v3.15c0 1.75.15 3.35.35 3.5.15.2 1.75.35 3.5.35 2.5 0 3.35-.2 4.15-1zM215 205.05c0-7.15.15-13.3.3-13.75.2-.55.95-.8 2.2-.8 3.7 0 3.5-.65 3.5 11.8v11.15l6.65.15 6.6.15v4l-9.6.15-9.65.1v-12.95zM276.1 204.4l.15-13.65H283c7.7 0 9.8.65 11.9 3.8 1 1.45 1.15 2.15 1 4.9-.2 3-.35 3.3-2.3 5.15-1.15 1.05-2.1 2.2-2.1 2.5 0 .4 2.7 6.25 4.9 10.55.1.2-1.15.35-2.8.35h-2.95l-1.55-3.35c-.8-1.9-1.95-4.45-2.5-5.75-.95-2.2-1.2-2.4-2.75-2.4-2.2 0-2.35.4-2.35 6.55V218H276l.1-13.6zm13.4-2.9c1.2-1.2 1.3-3.6.2-4.7-1.05-1.05-2.55-1.4-5.5-1.2l-2.45.15-.15 3.4-.15 3.35H285c2.85 0 3.7-.2 4.5-1zM158.55 160.3c-1-1.2-.3-2.2 1.7-2.6 1.35-.25 2.05-.1 2.8.6.8.75.85 1 .3 1.55-1.1 1.1-4.05 1.4-4.8.45zM121.8 155.9c-1.8-2.45-1.65-3.15.95-4.15 2.15-.8 2.35-.8 3.8.1.85.5 1.9 1.5 2.35 2.25.75 1.3.75 1.45 0 2.2-.45.45-1.95.95-3.3 1.1-2.35.2-2.55.15-3.8-1.5zM114.3 142.75c-2.6-1.6-3-2.4-2.3-4.55.65-1.9.5-2.4-1.85-7.5-1-2.25-1.55-2.75-4.45-4.25l-3.3-1.65-4.1 1.35c-2.2.75-4.3 1.35-4.65 1.35-.3 0-.75 1-.95 2.25-.15 1.25-.5 2.35-.7 2.5-.35.2-5.5-9.15-5.5-9.95 0-.6 2.25.8 4 2.5l1.8 1.7 4.95-1.65 4.95-1.6.7-2.75c1.25-5 2.85-5.6 7.4-2.7l2.8 1.8-.2 2.4c-.15 1.3-.7 3.3-1.25 4.4-.95 1.95-.95 2.05-.1 3.9.5 1.1 1.15 2.55 1.4 3.35.4.95 1.3 1.7 3.25 2.55 1.5.65 3.1 1.75 3.55 2.45.75 1.15.75 1.4-.1 3.2-1.1 2.35-2.6 2.65-5.35.9zM214 124.8c0-.65.7-2.5 1.55-4.1 1.6-3.05 2.95-4.8 2.95-3.9 0 1.15-3.7 9.2-4.25 9.2-.15 0-.25-.55-.25-1.2zM175.6 122.7c-1.45-1-1.4-2.8.1-4.55 1.15-1.3 1.3-1.35 2.95-.75 1.95.7 5.05.25 7-1.05.6-.4 1.65-1.8 2.3-3.05l1.2-2.35-.95-3.95c-.9-3.8-1.05-4.05-3.2-5.45l-2.3-1.5-3.25.95c-1.75.55-4.1 1.2-5.2 1.45-1.8.45-2.15.8-3.35 3.55-2.4 5.2-4 5.95-8.05 3.95-2.35-1.15-3.8-2.75-3.85-4.1 0-1.65 2.85-6.65 4.25-7.25 1.1-.5 1.65-.4 4.15.9 1.55.85 3.2 1.75 3.65 2.1.65.45 1.4.4 3.25-.2 1.35-.45 3.65-1.1 5.1-1.45 2.6-.65 2.7-.75 4.15-3.85 1.9-3.9 3.25-4.65 5.75-3.05 2.4 1.45 3.2 2.35 3.2 3.5 0 1.75-2.05 5.9-3.1 6.25-1.1.35-1.05 1.35.35 6.05.55 1.9 1.1 2.6 2.45 3.35 2.05 1.1 2.4 2 1.4 4.05-1.65 3.4-3.4 4.1-5.8 2.2-1.25-1-1.4-1-3.75-.2-1.95.65-2.7 1.25-3.85 3-1.5 2.45-2.7 2.8-4.6 1.45zM81.8 104.45c-.15-.9-.3-3.95-.3-6.85v-5.3l1.5 1.45c1.25 1.2 1.5 1.8 1.5 3.9 0 2.5-1.25 7.65-1.95 8.1-.25.1-.55-.45-.75-1.3zM219 98.9c-.55-.9-1.25-2.55-1.55-3.7l-.5-2-4.35-.55-4.35-.55-2.5 2.7c-3.05 3.3-3.9 3.25-6.15-.5-2.25-3.7-2.1-4.9.9-7.9 2.35-2.4 2.45-2.65 2.9-6.2.4-3.45.35-3.75-.7-4.75-1.75-1.6-2.9-4.15-2.5-5.5.4-1.45 3.05-3.65 4-3.3 1 .4 3.15 3.4 3.55 4.95.25 1.05.05 1.65-1.15 2.85-1.3 1.4-1.5 1.95-1.75 6.05l-.35 4.5 1.75 2.7c1.85 2.95 2.25 3.1 7.55 3.6l3.45.3.95-2.05c1.15-2.5 2.15-3.4 2.85-2.7.3.3.4 3.15.35 6.9-.15 7.05-.6 8.05-2.4 5.15zM157.5 81.15c-1.75-.7-2.1-1.8-1.95-6l.1-3.35-4.1-3.85-4.15-3.8-3.45.25c-4.55.3-5.45-.4-5.45-4.2 0-2.85.7-4 2.75-4.5 1.35-.35 5.1-.05 6.25.45.5.25 1.6-.4 3.25-1.9 1.4-1.2 2.7-2.25 2.9-2.25.25 0 .3-.85.1-1.85-.45-2.75.55-3.9 3.4-3.9 2.9 0 3.85.85 3.85 3.45 0 1.85.25 2.3 2.2 3.95 1.85 1.5 2.65 1.85 4.4 1.85 2.65 0 3.4.65 3.4 2.85 0 1.75-1.05 2.65-3.2 2.65-1.6 0-2.8-1.25-2.8-2.95 0-1.55-2.45-4.2-4.65-5-.8-.3-2.45-.55-3.75-.55-2.1.05-2.6.3-5.15 2.65-2.6 2.4-2.85 2.8-3.05 5.3l-.25 2.7 3.2 3c4.8 4.55 4.85 4.6 9.15 4.4 4.85-.15 5.7.5 6.2 5 .3 2.65.2 3.3-.6 4.4-.8 1.1-1.45 1.35-4.1 1.55-1.85.15-3.7 0-4.5-.35zM200.5 55.9c-.6-.95-1-2.55-1-3.75V50h1.95c3 0 4.5 1.6 4.7 4.75l.1 2.5-2.35.15c-2.2.15-2.45.05-3.4-1.5zM113.65 40.9c-1.45-.7-1.45-1.95 0-3.3 1.35-1.25 2.75-1.4 4.05-.45.75.55.8.85.35 1.75-.55 1-2.45 2.65-3.05 2.55-.15 0-.75-.25-1.35-.55zM170.75 33.3c-1.2-1.8-.5-2.8 1.95-2.8 2.35 0 3.3.65 3.3 2.3 0 2.05-4 2.45-5.25.5z"/>
  </g>
  <g fill="#657d90">
    <path d="M165 163.55c0-.75 2.95-3 4.35-3.35.65-.2 2.6-.15 4.3.1l3.1.45-2.25.8c-2.05.75-8.5 2.45-9.2 2.45-.15 0-.3-.2-.3-.45zM130.4 162.65c-1.85-.3-1.8-1.15.05-1.15.8 0 1.8-.15 2.25-.3.6-.2.8 0 .8.75 0 1.05-.25 1.15-3.1.7zM141 156.3c0-.1.5-1.5 1.1-3l1.05-2.85-1.05-1c-1.8-1.65-1.35-2 2.4-1.65 2.5.25 3.5.2 3.5-.25 0-.3.35-.55.75-.55.5 0 .75-.5.75-1.5 0-2 .9-1.9 1.8.25.4 1.05 1.15 1.85 1.85 2 3.6.85 6.15 1.1 7.2.7 1.05-.4 1.15-.3 1.15 1v1.4l3.8-.25c3.75-.25 3.8-.2 3.25.8-.5.95-1.45 1.35-5.4 2.25-.9.2-1.5-.2-2.6-1.6-1.35-1.65-1.95-1.95-5.45-2.7-3.85-.85-4.05-.85-7.25.15l-3.3 1.05-1.1 2.95c-.6 1.65-1.4 3-1.75 3-.4 0-.7-.1-.7-.2zM111.05 152.7c-3.2-2.4-3.95-3.2-3.05-3.2 1.25 0 4.45 2.05 5.7 3.7 1.8 2.4 1 2.25-2.65-.5zM193.45 150c.5-1.15 1.2-2.35 1.5-2.65.8-.8.75-.95-1.95-5.6l-2.55-4.25h-3c-3.75 0-4.95-.6-4.95-2.45s1.3-5.5 2.35-6.65c.95-1.05 4.45-1.2 6.9-.35 1.45.55 1.75.45 4.65-1.75 2.2-1.7 3.1-2.7 3.15-3.6.05-.65.15-1.4.2-1.7.05-.25.15-.95.2-1.5 0-.55.5-1.45 1.05-2 .85-.85 1.4-.95 2.9-.7 2.95.5 3.3 1.1 2.6 4.4-.65 3.15-1.5 3.9-4.2 3.7-1.3-.05-2.35.45-5.15 2.5-3.15 2.3-3.65 2.9-4.6 5.65-.65 1.65-1 3.4-.8 3.85.15.4 1.35 2.45 2.6 4.45 2.15 3.35 2.45 3.65 4 3.65.9 0 1.65.25 1.65.55 0 .65-3.85 4.15-6.05 5.6l-1.45.95.95-2.1zM104.3 144.95c-1.1-.85-1.3-1.35-1.05-2.4.5-1.95.85-2.1 2.9-1.2 1.95.9 2.6 2.05 2.1 3.65-.4 1.3-2.25 1.3-3.95-.05zM149.4 137.45c-.65-.35-.9-1.15-.9-2.9 0-2.05-.25-2.6-1.8-4.1-1.5-1.45-2.15-1.75-4.85-1.95l-3.1-.25-.15-2.1c-.15-1.9 0-2.2 1.1-2.7.85-.4 1.8-.45 2.9-.15 1.4.4 1.7.75 1.9 2.3.2 1.35.8 2.3 2.6 3.85 2.1 1.9 2.55 2.05 5.15 2.05 2.7 0 3.05-.15 5.6-2.3 1.5-1.3 2.85-2.2 3-2 .45.45-2.85 3.8-4.3 4.35-1.05.45-1.15.7-.9 2.7.25 1.65.1 2.4-.45 3-.9.85-4.45 1-5.8.2zM162.25 127.3c-.9-.6-.95-1.1-.75-3.85l.25-3.15-4-3.9-4-3.9-3.05.3c-6.1.6-7.7-.7-7.7-6.25 0-4.25.95-5.05 5.8-5.05 3.15 0 3.8.15 4.7 1.1.9 1 1.05 1.7.95 5.1l-.1 3.95 4.2 3.95c4 3.75 4.25 3.9 5.6 3.35 1.7-.7 5.25-.3 6.3.75.55.55.75 1.6.65 3.4-.15 3.5-.45 4.25-1.75 4.6-2 .55-6.1.3-7.1-.4zM127.6 117.7c-.25-.45-.35-1.25-.25-1.75.2-.7 0-.95-.8-.95-.6 0-2.55-.35-4.35-.8-2.05-.55-3.4-.65-3.65-.35-.15.25-.7.6-1.15.8-.7.25-.9.05-.9-.9 0-.7.2-1.25.45-1.25s.55-.5.65-1.1c.2-1.55 1.3-1.7 1.95-.2.5 1.05 1.2 1.4 4.3 2.1 2 .45 4.25.85 4.9.9 1.4.05 1.5.35.65 2.65-.65 1.85-1.15 2.05-1.8.85zM133.3 114.5c-1.3-1.35-1.4-1.6-.7-2.15.45-.3 1.15-2.1 1.65-3.95.6-2.2 1.15-3.4 1.6-3.4.4 0 .6.2.45.45-.6.95-1.65 7.1-1.25 7.3.2.15.9.95 1.45 1.75l1.05 1.5h-1.4c-.9 0-1.95-.6-2.85-1.5zM88.1 114.45c-2-1.3-2.4-2.8-1.6-5.7.75-2.7 2-2.95 4.15-1 1.5 1.4 1.65 2.9.65 5.7-.75 2.15-1.15 2.3-3.2 1zM213.6 112.9c-.3-.4-.95-1.55-1.35-2.6-.75-1.75-.75-1.9.55-4.1 1.55-2.65 2.55-2.7 3.9-.15 1.15 2.15.85 3.8-1.1 6-1.15 1.3-1.5 1.45-2 .85zM116.85 103.4c.4-2.15.4-1.95-.2-3.4-1.3-3.15-1.3-3.5.05-3.5.85 0 1.3.3 1.3.75s.6.9 1.5 1.1c1.8.35 1.85.5.25 1.75-.65.5-1.45 1.85-1.75 2.95-.65 2.35-1.6 2.65-1.15.35z"/>
    <path d="M135.75 102.3c.25-1.4.15-2.3-.2-2.5-.3-.2-.8-.8-1.1-1.4-.55-1-.5-1 2.35-.65 1.65.15 3.15.55 3.4.75.65.6-.6 2-1.75 2-.65 0-1.05.6-1.45 2-.75 2.75-1.65 2.6-1.25-.2zM93.1 97.4c-1.45-4.7-1.15-5.95 1.65-7.1 1.35-.6 2.05-1.45 3.5-4.3l1.8-3.6-.6-3.65-.65-3.65-4.15-2.8c-4.45-3-4.9-3.15-6.1-2.1-1 .85-3.05 1.5-3.05.95 0-.7 3.55-7.35 4.3-8.15.7-.65.75-.45.65 1.8-.05 1.35 0 2.75.2 3 .15.3 2.2 1.7 4.55 3.1l4.25 2.6 2.55-1.3c4.5-2.25 6.05-1.25 6.75 4.3.45 3.85-.65 5.25-4.85 6.1l-3.05.65-1.45 3c-1.3 2.8-1.4 3.3-1 5.8.25 1.5.5 2.95.6 3.2.35 1.45-.15 2.35-1.75 3.05-2.7 1.1-3.6.9-4.15-.9zM119.2 90c-1.65-.9-2.7-1.9-2.9-2.65-.4-1.6 1.3-5.5 2.95-6.75 1.2-.95 1.2-1 .55-4.45-.7-3.85-1.05-4.65-1.95-4.65-.35 0-1.25-.55-2.05-1.2-1.4-1.1-1.45-1.25-.8-2.75.85-2.1 2.4-4.05 3.2-4.05.35 0 1.45.55 2.45 1.2 1.7 1.2 2.55 1.35 3.6.7.3-.15 1.25-.45 2.2-.65 1.1-.25 1.9-.85 2.5-1.85 1.55-2.8 1.85-3.05 3.15-2.75.7.2 1.8.75 2.45 1.3l1.15.95-1.4 2.05c-1.55 2.25-2.25 2.45-4.05 1.25-.9-.6-1.4-.65-2.25-.2-.55.3-1.45.4-2 .25-1.15-.35-2.6.75-4.6 3.7l-1.55 2.15 1.05 4.3c.6 2.3 1.15 4.25 1.2 4.3.1.05 1.15.7 2.35 1.5 2.5 1.6 2.9 1.55 9.55-.6 3.7-1.2 4.25-1.5 4.4-2.6.2-1.7 2.6-5.05 4.15-5.95 1.2-.65 1.5-.6 3.25.35 1.05.65 2.55 1.4 3.3 1.7 2.35 1.05 2.65 2.4 1.25 5.2-2 3.95-3 4.9-4.95 4.85-1.65-.05-4.8-1.5-6.45-3-.75-.65-1.35-.55-5.25.6-6.65 2-6.65 2-8 5-1.1 2.35-2.75 4.25-3.7 4.25-.15 0-1.4-.65-2.8-1.5zM191 86.25c0-.5-.55-.75-1.75-.75-.95 0-1.75-.15-1.75-.3s.7-.95 1.5-1.7c1.05-1 1.5-1.9 1.55-3.1 0-.9.2-2.1.4-2.65.3-.7 0-1.85-1-3.85-1.15-2.3-1.7-2.9-2.65-2.9-.65 0-2.35-.35-3.75-.85-2.4-.75-2.7-.75-4.35 0-2.2 1.1-2.2 1.1-2.2-.4 0-.9.25-1.25 1-1.25.65 0 1-.35 1-1 0-.55.25-1 .5-1 .3 0 .5-.35.5-.75 0-1.55 1.4-.7 1.85 1.15.4 1.8.55 1.85 3.9 2.7 1.95.5 3.9.75 4.4.6.65-.2.85.05.85 1 0 .7.25 1.3.5 1.3.3 0 .5.45.5 1 0 .75.35 1 1.25 1 1.6 0 1.65 1.35.05 2.05-1 .45-1.2 1.05-1.5 3.6-.2 2.15-.1 3.35.35 4.05 1.4 2.15 1.4 2.8.1 2.8-.8 0-1.25-.3-1.25-.75zM172.85 85.5c-.45-.55-1.2-1-1.6-1-1.05 0-.95-.75.2-1.55.6-.45 1.3-2.3 2-5.15.55-2.45 1.15-4.55 1.3-4.7.65-.65.6.5-.1 5-.8 4.75-.8 4.8.3 6.15.55.75 1.05 1.6 1.05 1.8 0 .85-2.3.45-3.15-.55zM213 63.75c-.7-1.25-.35-2.35.45-1.45.7.7 1.15 2.7.65 2.7-.25 0-.75-.55-1.1-1.25zM179.5 57.15c-2.6-.5-3.5-2.3-3.7-7.35-.05-2-.25-2.35-2.75-4.3-2.6-2.05-2.85-2.15-5.85-2.05-4.05.15-5-.4-5.45-3-.5-2.85.45-3.7 4-3.65 3.2 0 3.8.45 4.5 3.35.4 1.75 1.05 2.5 4 4.7 3.4 2.55 3.6 2.65 6.75 2.65h3.25l3.7-3.5c3.55-3.35 3.7-3.55 3.1-4.8-.3-.75-.5-1.4-.4-1.55.35-.3 1.85.4 1.85.9 0 .25.3.45.65.45.3.05 1.5.85 2.6 1.8l2 1.8-1.55-.3c-.9-.15-2.1-.4-2.75-.55-1-.25-1.8.3-4.65 3.2-3.3 3.3-3.45 3.6-2.9 4.8.35.7.6 2.5.6 4 0 2.15-.2 2.8-.95 3.25-1 .5-3.7.55-6.05.15zM119.65 49.65c-.6-.2-.95-3.65-.4-3.65.15 0 .7.25 1.2.6.7.4 1.95.45 4.75.1 2.85-.35 3.8-.35 3.8.1 0 .65-1.05 1-4.85 1.5-1.5.2-2.7.6-2.85 1-.3.75-.6.8-1.65.35zM106.3 42.1c-.15-.3-.05-.7.25-.85.75-.5 1.25.15.6.8-.35.35-.65.35-.85.05zM134.2 34.4l-.45-3.55-1.9-.55c-2.5-.7-2.55-1.3-.2-2.1 1.6-.55 1.85-.55 1.85.1 0 .45.5.7 1.5.7s1.5-.25 1.5-.75c0-.4.35-.75.75-.75s.75-.2.75-.45c0-.65 2.05-1.05 2.85-.6.55.25.1.85-1.65 2.2-1.3 1-2.7 1.85-3.1 1.85-.6 0-.7.65-.45 3.75.25 2.95.2 3.75-.35 3.75-.45 0-.8-1.15-1.1-3.6zM148.7 33.05c-2.45-1.5-2.55-2.05-.65-3.6 2-1.7 3-1.75 5.85-.45 2.5 1.15 2.65 1.95.55 3.7-1.8 1.55-3.6 1.65-5.75.35zM161.65 27.65c-3.9-1.25-5.3-2.15-3.25-2.15 1.65.05 9.15 1.5 10 1.95.75.4.65.55-.55 1-1.75.7-1.35.75-6.2-.8z"/>
  </g>
  <g fill="#336181">
    <path d="M136.5 163.85c-2.6-.6-4.8-1.35-4.85-1.7-.15-.65 4.8-2.65 6.6-2.65 1.05 0 1.5-.55 2.85-3.35.85-1.9 1.55-3.7 1.45-4-.05-.35.25-.65.7-.65.6 0 .65.2.3.9-.25.45-.45 1-.5 1.25-.05.2-.05.4-.1.5 0 .05-.1.45-.2.85-.1.4-.5 1.55-.95 2.55l-.75 1.8 2.2 2.1c3.95 3.7 2 4.35-6.75 2.4zM177.8 155.75c-.6-.6-.65-1.1-.25-2.15.95-2.55 1.85-3.1 5.05-3.1 2.6 0 2.9.1 2.9 1 0 1.45-1.35 3.9-2.45 4.5-1.45.75-4.35.6-5.25-.25zM109.5 151.5c-2.3-2.05-2.1-2.6.55-1.25.8.45 1.35 1 1.15 1.3-.15.25 0 .8.3 1.2 1 1.25.35.8-2-1.25zM162 153c0-.25-.3-.5-.6-.5-.35 0-1.05-.7-1.5-1.5-.85-1.45-.8-1.55.25-2.25 2-1.3 4.9-2.3 5.85-2 1.2.4 3.1 3.4 2.75 4.35-.4 1-2.15 2-2.5 1.4-.5-.75-1.75-.6-1.75.25 0 .45-.45.75-1.25.75-.7 0-1.25-.2-1.25-.5zM143.25 149.8c-1.4-.6-3.05-2.45-3.8-4.3-.55-1.3.5-2.5 3.45-3.8 4.15-1.85 6.15-1.1 7.8 2.85 1.05 2.55.6 3.7-1.85 4.5-1.15.4-2.25.7-2.45.7-.15 0-.5.15-.7.4-.5.45-.65.45-2.45-.35zM206.7 131.3c-.15-.45.1-1.6.65-2.65.7-1.45 1.2-1.9 2.15-1.9 2.55 0 1.5 4.75-1.15 5.1-.9.1-1.45-.1-1.65-.55zM130.4 122.25c-1.7-1.7-3.1-4.95-2.7-6.35.4-1.6 5.45-4.15 6.65-3.35 1.45.9 4.15 4.7 4.15 5.85 0 1.25-1.3 2.75-3.35 3.75-2.75 1.4-3.45 1.45-4.75.1zM114.05 114.55c-.55-.55-1.35-1.7-1.8-2.5-.95-1.9-.4-3 2.3-4.5 1.65-.95 1.9-1.35 2.2-3.55.45-3.35 1.35-3.25.95.15-.15 1.4-.35 2.7-.4 2.85 0 .15.45 1.1 1.1 2.1 1.45 2.3 1.05 4.15-1.1 5.45-1.95 1.2-2.05 1.2-3.25 0zM134.8 107.75c.15-1.35.55-3.3.85-4.25.75-2.4.75-3.15-.15-4-.45-.4-1.4-1.85-2.2-3.15-2.2-3.8-1.45-5.35 3.8-8.05 2.75-1.4 3.95-.85 6.1 2.75 2.4 4.05 2.2 5.2-1.45 7.65-1.55 1-2.85 1.55-3 1.3-.7-1.1-1.65-.45-1.65 1.15-.05.85-.6 3.3-1.3 5.35-1.25 3.7-1.25 3.7-1 1.25zM117.5 99.85c-1-.8-2-2.65-2-3.6 0-.95 2.9-2.75 3.85-2.4.85.35 2.15 2.75 2.15 4.1 0 .65-.6 1.3-1.5 1.8-1.7.9-1.55.9-2.5.1zM167 92.4c-2.2-3.4-2.35-4.15-1.2-5.8.9-1.3 5.2-3.6 6.65-3.6 1.3 0 3.25 2.1 4.6 4.9.9 1.8.95 2.35.5 3.25-.9 1.65-5.3 4.35-7.05 4.35-1.3 0-1.8-.4-3.5-3.1zM85.5 90.7c-.8-2.05-.6-3.1.8-4 1.5-1 2-.6 2.45 1.85.55 3-2.25 4.85-3.25 2.15zM188.25 88c-1-1.95-.95-3.45.15-3.85.45-.2 1-.55 1.2-.85.55-.8 1.95.2 3.05 2.1.9 1.55.9 1.6-.35 2.85-1.7 1.7-3.1 1.6-4.05-.25zM174.05 76.25c0-.55.2-1.9.45-2.95.4-1.75.25-2.2-.95-4-3.15-4.65-3.1-5.45.7-7.3 2.75-1.35 4.3-1.05 5.8 1.05 1.45 2.1 2.1 4.95 1.1 4.95-.45 0-.65.3-.5.7.15.4-.6 1-2.2 1.75-2 .85-2.55 1.35-2.8 2.55-.15.85-.5 1.5-.75 1.5s-.35.15-.25.4c.15.2.05.8-.2 1.35l-.4 1v-1zM192.1 76.15c-.75-.15-1.45-1-2.15-2.55l-1.05-2.3 1.4-1.15c2.3-1.8 3.75-1.55 5.1 1 .6 1.15 1.1 2.35 1.1 2.7 0 .6-2.4 2.7-2.95 2.6-.15-.05-.8-.2-1.45-.3zM212.3 73.7c-.75-1.65-.75-1.9-.05-3 1.1-1.65 2.05-1.5 3.05.55.75 1.6.75 1.85 0 3-1.15 1.7-1.95 1.55-3-.55zM97 58.25c-.35-.4-.65-1.65-.7-2.8-.05-2.25 1.05-3.45 4.1-4.5 2.25-.75 3.1.05 3.1 2.85 0 2-.2 2.3-1.85 3.4-2.65 1.7-3.9 1.95-4.65 1.05zM114.55 52.85c-2.5-1.25-2.65-2.4-.65-5 2-2.65 3.1-3.1 5.05-2.15.85.45 1.55 1.15 1.55 1.55 0 .4.25.75.5.75.9 0 .55 1.3-.85 3.15-2.05 2.65-3.1 2.95-5.6 1.7zM132.75 49.95c-1.1-.85-2.15-1.75-2.3-2.05-.2-.35-1.15-.45-2.35-.3-2.6.35-2.4-.85.25-1.35 1.15-.2 2.5-1.05 3.95-2.6 2.05-2.1 2.2-2.45 2.25-5.05.05-1.6.2-3.4.45-4.1.25-.95.45-.4.75 2.35l.4 3.65 2.6 1.45c2.95 1.7 4.25 2.8 4.25 3.8 0 .35-1.05 1.8-2.3 3.2-2 2.2-2.55 2.55-4.1 2.5-1.25 0-2.5-.5-3.85-1.5zM131.25 29.65c-.8-.75-.75-.85.6-1.4.8-.35 2.95-.95 4.75-1.35 3.1-.75 3.25-.75 3.2.15-.05.55-.7 1.5-1.5 2.2-1.8 1.55-5.7 1.75-7.05.4zM163.85 28.4c-1-.3-2.1-.95-2.4-1.5-.5-.9-.4-.95 1.4-.6 1.05.2 2.3.4 2.75.4.45 0 .9.5 1.05 1.15.25 1.25.05 1.3-2.8.55z"/>
  </g>
</svg>